<svg xmlns="http://www.w3.org/2000/svg" viewBox="0 0 32 32">
  <rect width="32" height="32" rx="7" fill="#059669"/>
  <g transform="translate(4 4) scale(1)" fill="none" stroke="#ffffff" stroke-width="2" stroke-linecap="round" stroke-linejoin="round">
    <path d="M19.428 15.428a2 2 0 0 0-1.022-.547l-2.387-.477a6 6 0 0 0-3.86.517l-.318.158a6 6 0 0 1-3.86.517L6.05 15.21a2 2 0 0 0-1.806.547M8 4h8l-1 1v5.172a2 2 0 0 0 .586 1.414l5 5c1.26 1.26.367 3.414-1.415 3.414H4.828c-1.782 0-2.674-2.154-1.414-3.414l5-5A2 2 0 0 0 9 10.172V5L8 4z"/>
  </g>
</svg>
